<?xml version="1.0" encoding="UTF-8"?>
<svg id="Camada_18" data-name="Camada 18" xmlns="http://www.w3.org/2000/svg" viewBox="0 0 2700 3048">
  <defs>
    <style>
      .cls-1, .cls-2, .cls-3, .cls-4, .cls-5, .cls-6, .cls-7, .cls-8, .cls-9, .cls-10, .cls-11, .cls-12, .cls-13, .cls-14, .cls-15, .cls-16 {
        stroke-miterlimit: 10;
      }

      .cls-1, .cls-2, .cls-3, .cls-6, .cls-8, .cls-9, .cls-10, .cls-11, .cls-12, .cls-15, .cls-16 {
        stroke: #1d1d1b;
      }

      .cls-1, .cls-3, .cls-16 {
        stroke-width: 27.8px;
      }

      .cls-1, .cls-5, .cls-8, .cls-10, .cls-12, .cls-14 {
        fill: none;
      }

      .cls-2 {
        fill: #5c1415;
        stroke-width: 28.63px;
      }

      .cls-3 {
        fill: #fffcfb;
      }

      .cls-4 {
        stroke-width: 51.82px;
      }

      .cls-4, .cls-17 {
        fill: #8f3637;
      }

      .cls-4, .cls-7, .cls-13, .cls-14 {
        stroke: #000;
      }

      .cls-5 {
        stroke: #bb4392;
        stroke-width: 25.91px;
      }

      .cls-6 {
        stroke-width: 31.92px;
      }

      .cls-7 {
        stroke-width: 30.35px;
      }

      .cls-7, .cls-18 {
        fill: #1d1d1b;
      }

      .cls-8 {
        stroke-width: 40.81px;
      }

      .cls-19 {
        fill: #6b3232;
      }

      .cls-20, .cls-9, .cls-15 {
        fill: #9f3822;
      }

      .cls-9 {
        stroke-width: 39.81px;
      }

      .cls-10 {
        stroke-width: 30.03px;
      }

      .cls-11 {
        fill: #e76243;
      }

      .cls-11, .cls-12 {
        stroke-width: 31.78px;
      }

      .cls-13 {
        fill: #bfbebe;
      }

      .cls-13, .cls-14 {
        stroke-width: 33.32px;
      }

      .cls-15 {
        stroke-width: 23.31px;
      }

      .cls-16 {
        fill: #5dc0c7;
      }
    </style>
  </defs>
  <path d="m1672.78,899.34c-214.26-225.81-374.62-312.8-512.24-181.65-175.84-116.34-415.54-124.21-441.45,66.43-180.56-30.26-402.59,83.26-228.8,292.9-216.56,18.62-447.61,261.72-203.59,389.54-95.74,13.81-169.77,188.26-13.37,277.82-104.58,139.31,106.56,347.25,268.17,317.43-22.6,118.06,108.6,222.29,274.74,126.64,81.07,85.78,165.08,100.3,277.41,65.75,44.24,130.77,472.24,96.25,640.51-27.32,89.47,69.61,309.93,19.74,284.39-153.14,124.8,78.95,213.7-10.76,172.79-211.38,146.83,54.72,282.95-67.51,134.13-293.4,156.62-47.09,92.97-226.4-32.19-275.37,169.85-22.25,86.83-254.63-127.06-263.28,28.96-112.46-115.41-249.42-493.44-130.96Z"/>
  <path class="cls-9" d="m1856.64,1683.22c-.42,8.63-.88,17.47-1.43,26.57v.04c-4.86,79.74-15.45,176.11-37.83,257.97-1.06,3.89-2.22,7.83-3.56,11.76-.19.63-.42,1.27-.65,1.9-29.41,88.71-111.91,187.79-207.81,253.83-65.99,45.39-150.22,91.78-216.06,91.78s-132.04-42.37-200.11-85.9c-91.14-58.38-168.97-148.66-198.66-251.84h-.05c-2.03-7.11-3.88-14.3-5.46-21.53-22.24-101.74-32.6-181.74-37.41-245.79-1.34-17.73-31.45-49.27-32.05-64.67,16.59-227.72,208.13-406.79,510.95-385.07,52.29,3.75,102.41,20.73,152.76,38.33,7.03,148.42,125.43,234.7,266.48,148.42-13.32,67.18-58.1,212.57,10.9,224.21Z"/>
  <path class="cls-13" d="m1711.85,1527.38c-34.69,24.95-60.44,42.94-92.48,67.23-.08,42.29-.08,78.38-.08,119.63,58.88-3.74,103.59,111.02,103.59,111.02,0,0,79.62-119.16,133.76-133.4,13.4-3.52,18.33-201.62,14.63-232.84-90.15,47.85-171.05,74.18-163.11,71.94"/>
  <path class="cls-11" d="m942.72,1934.22c-5.27,1.68-58.99,17.35-110.99-17.03-15.89-10.53-31.61-25.7-45.75-47.37-12.4-18.99-21.13-39.26-25.95-59.04-19.56-80.24,25.18-152.63,150.31-102.12,3.63,54.04,11.45,121.54,28.25,207.39,1.19,6.1,2.58,12.17,4.12,18.17Z"/>
  <path class="cls-15" d="m1956.45,1868.18c-39.95,58.31-96.78,50.9-113.43,47.22.13-.38.26-.77.37-1.15.76-2.38,1.42-4.75,2.02-7.1,12.71-49.44,18.73-107.65,21.48-155.81v-.03c113.85-41.5,136.15,48.85,89.56,116.87Z"/>
  <path class="cls-2" d="m1257.89,2142.96s23.24,86.86,123.06,93.13c90.9,5.71,132-95.52,132-95.52"/>
  <path class="cls-18" d="m1330.04,1923.82c-10.98,12.28-22.3,27.54-20.25,44.41,2.86,18.77,13.69,27.37,31.29,32.24,27.47,7.57,109.81,9.4,123.79-20.21,5.19-21.49-.75-44.62-17.25-60.36,25.47,5.19,42.17,30.87,44.56,55.86,3.38,21.35-11.4,40.39-28.06,50.73-35.19,22.73-97.4,23.92-135.37,8.63-23.19-9.28-41.7-28.41-42.87-54.39-.5-9.32,1.04-19.35,5.45-27.5,8.27-15.31,22.69-25.06,38.71-29.42h0Z"/>
  <path class="cls-18" d="m1226.6,2098.49c59,51.94,59.3-9.25,120.08-14.63,26.56-2.35,43.78,25.85,43.78,25.85,0,0,17.93-31.99,48.59-24.35,47.38,13.73,73.9,60.89,112.93,23.28-8.34,31.94-32.85,62.38-60.61,65.15-28.34,2.83-37.92-13.61-53.81-16.79-15.89-3.18-26.72,21.82-52.14,21.03-25.43-.8-31.57-19.31-53.6-20.34-19.07-.9-28.53,24.93-62.13,11.33-31.16-12.61-43.17-47.84-43.08-70.52Z"/>
  <path class="cls-3" d="m1095.19,1717.76s-69.58,93.68,6.07,167.5l122.42,8.09s54.57-40.33,37-114.38c0,0-34.01-64.53-162.36-65.82"/>
  <path class="cls-18" d="m1288.33,1811.64c-47.55-44.19-97.6-83.81-164.75-84.59-74.96-2.04-86.56,54.21-79.98,23.19,2.72-10.23,8.09-19.76,15.06-27.74,20.5-23.62,53.42-32.91,83.92-32.34,41.28.46,80.99,20.06,108.3,50.41,18.02,20.16,32.35,44.45,37.45,71.06h0Z"/>
  <path class="cls-16" d="m1705.26,1723.28s69.15,97.24-6.51,171.07l-122.42,8.09s-51.64-43.78-34.07-117.82c0,0,52.28-66.19,163-61.33"/>
  <path class="cls-18" d="m1511.69,1820.72c1.06-6.67,3.1-13.11,5.46-19.41,7.26-19.09,18.15-36.39,31.99-51.66,27.31-30.35,67.01-49.94,108.3-50.41,30.5-.58,63.43,8.72,83.92,32.34,6.97,7.98,12.34,17.51,15.06,27.74,6.59,31.03-5.01-25.23-79.98-23.19-67.14.77-117.22,40.41-164.75,84.59h0Z"/>
  <ellipse class="cls-6" cx="1169" cy="1791.28" rx="42.35" ry="51.19"/>
  <path class="cls-1" d="m1742.31,2083.72s-96.91-80.17-99.88-96.48c-2.97-16.32-3.78-81.89-3.78-81.89"/>
  <ellipse class="cls-7" cx="1633.65" cy="1802.44" rx="44.13" ry="53.35"/>
  <path class="cls-18" d="m1942.47,1803.88c-6.92-2.41-14.39-4.15-21.24-2.39-19.21,5.29-23.57,33.75-26.26,51.07,0,0-9.42-5.6-9.42-5.6.39-.21.58-.3.86-.43,10.63-4.84,24.51-5.63,34.11,1.81,3.11,2.41,5.51,5.45,7.13,8.74-3.03-2.09-6.11-3.77-9.28-4.73-8.99-2.79-18.43.07-26.06,4.98-.12.08-.31.22-.31.23l-9.42-5.6c-.61-20.45,4.49-45.71,24.18-56.7,12.44-6.73,27.56-2.22,35.72,8.61h0Z"/>
  <path class="cls-19" d="m1437.7,2312s268.22-226.87,308.19-450.86c6.4-35.89,12.44-57.89,12.44-57.89,35.99-48.1,78.89-95.66,108.08-91.32,0,0-23.61,257.36-90,354.85-66.39,97.49-244.27,213.17-288.4,237.86-44.13,24.69-61.51-5.84-61.51-5.84l11.19,13.19Z"/>
  <path class="cls-19" d="m1341.04,2306.74s-275.79-233.56-309.59-458.57c-33.8-225-50.54-190.83-50.54-190.83l-74.57,6.25s7.44,292.88,73.83,390.36c66.39,97.49,260.8,205.7,304.93,230.4,44.13,24.69,43.39,31.62,43.39,31.62"/>
  <path class="cls-17" d="m932.15,1848.18s-140.46-67.64-163.08-49.99c-18.31,14.28,14.43-35.4-10.63-37.93,0,0,25.75-40.34,27.29-41.89,1.54-1.56,56.22-19.43,56.22-19.43,0,0,67.71-8.63,68.41,9.74.7,18.37,17.13,96.9,17.13,96.9"/>
  <path d="m578.49,1443.52c8.06-7.25,15.75-14.94,24.3-21.66,17.22-13.93,36.19-26.06,56.57-35.15,23.22-10.33,48.73-16.84,74.4-15.41,35.24,1.53,68.3,19.93,88.36,49.48,26.63,37.7,29.38,86.32,24.31,128.93-1.83,16.72-4.35,30.68-6.35,45.78-.52,4.12-.91,7.83-1.07,10.74-.03,1.83-.25,4.04.18,5.21.12.09.2-.29.17-1.48-.13-2.08-.42-3.64-1.07-5.98-3.13-11.55-13.42-23.26-23.88-28.13-2.74-1.34-4.65-1.94-5.92-2.31-2.53-.68-2.42-.49-1.2-.5,0,0,5.93.04,5.93.04,53.96.92,110.66,6.74,158.14,36.56,50.11,31.77,71.99,86.66,57.27,143.88-3.1,12.75-7.87,24.03-13.02,35.73-7.05,16.58-13.73,33.53-18.85,50.51-5.13,17.19-9.77,35.81-8.44,53.56.51,3.61.28,6.84,2.3,9.95,2.66,3.66,8.92,4.98,14.04,4.56,6.64-.43,13.94-3.18,19.02-7.6,11.3-9.57,5.64-22.6-3.05-32.2,8.29,2.05,16.22,6.31,21.3,13.59,6.14,8.55,6.69,20.29,3.42,30.05-6.96,20.34-24.73,34.99-45.69,39.98-25.91,6.16-51.79-6.64-66.54-28.38-30.67-44.7-25.31-114.96-17.1-165.82.06-.52.37-2.09.43-2.54.03-.11.01-.92.02-1.08.17-7.48-.13-16.17-2.58-22.78-.99-2.41-2.49-5.53-4.69-4.88-1.17.49-1.14,2.32-2.51,2.51-.66.13-1.63-.03-3.08-.33-2.89-.63-7.62-1.77-13.51-2.73-22.59-3.69-47.66-4.06-71.47-4.44-2.2-.05-8.29-.06-10.45-.1-26.38.25-57.14-7.06-79.17-26.36-24.57-20.67-36.31-52.61-35.17-83.87.51-20.76,5.64-40.73,11.26-59.71,6.48-22.04,14.26-43.21,17.58-64.06,1.03-5.6.95-9.11,1.77-13.78,1.53-11.7-19.1-18.42-28.22-20.97-27.89-7.11-56.5-7.25-85.4-7.79-8.88-.28-23.49.19-32.37-1.06h0Z"/>
  <path d="m884.4,1655.49s155.47-3.43,215.17-131.14c59.69-127.71,163.8-37.48,262.36-134.65,98.56-97.17,54.98-217.94,54.98-217.94l-324.28,34.7-215.17,252.65,6.94,196.38Z"/>
  <path d="m694.1,1691.86s54.63,293.79,64.33,293.87c9.7.09,147.91,76.08,147.91,76.08l39.18-125.36-39.18-302.99"/>
  <path d="m1123.69,912.81c46.58-14.41,97.44-20.96,144.93-5.93,58.01,18.44,89.94,69.43,83.1,129.81-4.59,40.61-25.07,75.34-47,106.7-6.71,9.73-15.89,21.98-21.58,31.63-1.41,2.45-2.33,4.43-2.37,4.97-.03.27.17.19.56-.55,6.77-14.86.35-37.84-12.01-47.95-.45-.37-.51-.42-.26-.3,3.27,1.72,6.63,3.39,9.84,5.15,66.92,36.49,149.48,107.58,155.04,189.06,2.97,43.61-20.66,82.73-59.05,101.84-8.3,4.2-15.69,7.07-23.79,9.53-10.02,2.35-20.79,5.18-29.96,8.69-13.35,5.36-26.65,11.6-34.55,23.4-2.75,4.3-4.33,9.45-4.26,14.7.15,13,8.77,24.92,23.15,18.19,4.05-1.8,8.1-4.75,11.92-8.26-.45,8.02-3.25,16.9-9.08,23.3-9.66,11.17-26.69,13.36-40.36,8.27-10.47-3.71-19.48-10.67-26.42-19.23-19.22-23.6-20.43-57.58-9.13-84.97,14.43-35.63,44.3-61.49,75.84-80.71,2.38-1.94,4.79-4.22,6.48-6.57,1.94-2.51,2.29-5.83-1.22-3.54-1.33.95-2.83,2.9-3.8,4.87-1.04,1.96-1.54,3.76-2,4.64-.46.9-.89.98-1.64.42-4.42-4.34-8.02-9.01-14.07-14.61-4.55-4.37-9.82-8.99-15.49-13.61-21.07-17.05-44.15-32.16-68.04-45.16-15.31-7.85-28.8-15.87-41.41-28.76-24.32-24.26-35.13-60.24-26.97-93.9,4-18.5,14.72-37.54,25.4-51.35,19.04-25.2,43.12-45.34,61.88-68.46,4.78-6.06,7.23-9.32,10.52-14.6,1.96-3.82,4.82-5.44,4.52-10.07-1.44-13.88-19.5-28.14-30.46-36.2-22.91-16.54-49.24-29.36-74.56-42.61-4.55-2.48-9.53-4.78-13.7-7.82h0Z"/>
  <path class="cls-8" d="m1856.64,1668.42c-.43,8.79-.91,17.8-1.48,27.06v.04c-5.01,81.22-15.94,179.38-39.04,262.76-1.1,3.96-2.29,7.97-3.67,11.98-.19.65-.43,1.29-.67,1.94-30.35,90.36-115.49,191.27-214.46,258.53-68.1,46.23-143.26,96.35-211.22,96.35s-148.03-46.02-218.28-90.36c-94.06-59.46-174.38-151.41-205.01-256.51h-.05c-2.1-7.24-4.01-14.56-5.63-21.93-22.95-103.63-33.64-185.11-38.61-250.35-1.38-18.05-2.34-34.9-2.96-50.59"/>
  <path class="cls-12" d="m945.53,1936.46c-5.27,1.68-58.99,17.35-110.99-17.03-15.89-10.53-31.61-25.7-45.75-47.37-12.4-18.99-21.13-39.26-25.95-59.04-19.56-80.24,25.18-152.63,150.31-102.12,3.63,54.04,11.45,121.54,28.25,207.39,1.19,6.1,2.58,12.17,4.12,18.17Z"/>
  <path class="cls-10" d="m1991.86,1855.93c-51.46,75.11-124.67,65.56-146.12,60.82.17-.49.34-.99.47-1.48.98-3.06,1.83-6.12,2.6-9.15,16.37-63.69,24.12-138.67,27.67-200.71v-.03c146.66-53.45,175.38,62.93,115.36,150.55Z"/>
  <path class="cls-18" d="m1285.54,1673.23c-30.74-8.21-59.51-22.61-87.73-36.09-7.01-3.45-13.82-6.56-20.82-9.84-16.06-6.95-33.44-10.31-53.9-12.2-14.18-1.22-29.5-1.78-44.2-.81-5.43.46-10.64.93-15.99,2.85,4.08-16.05,24.21-29.7,38.5-36.34,27.97-13.04,61.81-14.92,90.82-3.37,39.46,16.59,78.52,55.38,93.32,95.8h0Z"/>
  <path class="cls-1" d="m1741.84,2083.72s-96.91-80.17-99.88-96.48c-2.97-16.32-3.78-81.89-3.78-81.89"/>
  <polyline class="cls-1" points="1625.96 1736.35 1622.68 1594.94 1722.88 1513.97"/>
  <path class="cls-5" d="m1931.42,1944.63s14.75,15.59,10.44,98.69c-4.31,83.1-30.39,149.3-58.25,147.85-27.86-1.45-46.94-69.98-42.63-153.08,4.31-83.1,30.39-149.3,58.25-147.85"/>
  <path class="cls-4" d="m1860.34,1713.16s5.02-138.47,1.32-247.84"/>
  <polyline class="cls-14" points="1876.25 1567.85 1777.98 1596.98 1716.9 1639.11 1716.9 1734.43"/>
  <path class="cls-20" d="m1897.18,1868.88l-3.01,13.11c7.05,4.25,4.89,20.34-4.57,17.7l-5.67,4.16c10.58,2.95,37.73-11.59,40.31-22.48,3.06-12.93-27.06-12.49-27.06-12.49Z"/>
</svg>