<?xml version="1.0" encoding="UTF-8"?>
<svg id="Camada_11" data-name="Camada 11" xmlns="http://www.w3.org/2000/svg" viewBox="0 0 2700 3048">
  <defs>
    <style>
      .cls-1 {
        fill: #32183e;
      }

      .cls-1, .cls-2, .cls-3, .cls-4, .cls-5 {
        stroke-miterlimit: 10;
      }

      .cls-1, .cls-2, .cls-3, .cls-5 {
        stroke-width: 30.81px;
      }

      .cls-1, .cls-4, .cls-5 {
        stroke: #000;
      }

      .cls-6 {
        fill: #fff;
      }

      .cls-6, .cls-7 {
        opacity: .32;
      }

      .cls-8 {
        fill: #dc87b8;
      }

      .cls-2 {
        stroke: #37bff0;
      }

      .cls-2, .cls-3 {
        fill: none;
      }

      .cls-9, .cls-7 {
        fill: #37bff0;
      }

      .cls-3 {
        stroke: #dc87b8;
      }

      .cls-4 {
        stroke-width: 25.16px;
      }

      .cls-4, .cls-5 {
        fill: #33193f;
      }
    </style>
  </defs>
  <rect class="cls-4" x="804.61" y="1556.4" width="1069.55" height="79.23"/>
  <path class="cls-1" d="m554.74,1655.43l150.83,39.61,325.68,6.4-48.39-72.94,816.68,1.16.21,62.38h208.1c107.26,4.25,153.47-7.7,163.38-79.68l59.44-336.82-83.27-35.75-352.47-.31-79.23,79.23h-673.42l-59.42-99.03-428.61-2.99-66.55,58.86,67.04,379.88Z"/>
  <polygon class="cls-5" points="824.42 1774.27 1913.77 1774.27 1913.77 1833.69 1438.42 2091.17 1339.38 2091.17 824.42 1833.69 824.42 1774.27"/>
  <polygon class="cls-5" points="487.7 1635.62 388.67 1298.91 190.61 1279.11 190.61 1417.75 408.48 1635.62 487.7 1635.62"/>
  <polygon class="cls-5" points="2250.48 1655.43 2349.52 1318.72 2547.58 1298.91 2547.58 1437.56 2329.71 1655.43 2250.48 1655.43"/>
  <polygon class="cls-9" points="228.57 1316.79 243.97 1396.02 309.99 1381.72 380.42 1465.34 338.6 1327.01 228.57 1316.79"/>
  <polygon class="cls-9" points="277.55 1430.82 397.49 1557.5 427.19 1558.74 318.26 1420.92 277.55 1430.82"/>
  <path class="cls-9" d="m2384.05,1352.26l112.03-11.78v60.85l-56.58,52.12s-41.56-10.2-43.41-9.06c-1.85,1.14-48.14,35.76-48.14,35.76l36.11-127.88Z"/>
  <polygon class="cls-9" points="2387.86 1483.44 2336.94 1519.09 2312.87 1587.25 2330.93 1588.99 2415.18 1491.77 2387.86 1483.44"/>
  <g>
    <polygon class="cls-9" points="1554.64 1970.95 1498.85 2003.14 1445.48 2033.96 1338.75 2033.96 1265.02 1996.54 1272.15 1977.44 1275.69 1967.93 1175.67 1917.25 1086.76 1872.2 1066.96 1892.01 955.86 1844.69 948.12 1803.98 1259.94 1806.14 1291.61 1823.85 1384.37 1875.72 1469.84 1923.54 1469.86 1923.54 1535.16 1960.05 1554.64 1970.95"/>
    <polygon class="cls-9" points="1746.98 1835.89 1642.12 1857.9 1687.56 1894.21 1611.08 1938.36 1566.83 1922.49 1495.17 1896.83 1466.39 1886.51 1481.88 1853.5 1429.7 1834.64 1352.68 1806.77 1459.63 1807.5 1579.11 1808.34 1662.56 1808.91 1746.98 1809.48 1746.98 1835.89"/>
    <polygon class="cls-7" points="1291.61 1823.85 1384.37 1875.72 1272.15 1977.44 1275.69 1967.93 1175.67 1917.25 1291.61 1823.85"/>
    <polygon class="cls-7" points="1459.63 1807.5 1429.7 1834.64 1352.68 1806.77 1459.63 1807.5"/>
    <polygon class="cls-7" points="1469.86 1923.54 1535.16 1960.05 1498.85 2003.14 1445.48 2033.96 1365.13 2033.96 1469.84 1923.54 1469.86 1923.54"/>
    <polygon class="cls-7" points="1662.56 1808.91 1566.83 1922.49 1495.17 1896.83 1579.11 1808.34 1662.56 1808.91"/>
  </g>
  <path class="cls-9" d="m889.59,1510.12l-.85-2.54-13.11,3.17c-4.37-16.92-2.75-33.2,4.86-48.85,4.09-8.6,9.76-16.03,17.02-22.31,7.26-6.27,15.12-10.85,23.58-13.75,8.46-2.89,17.45-4.12,26.96-3.7,9.51.42,18.57,2.75,27.17,6.98,8.46,4.09,15.72,9.52,21.78,16.28,6.06,6.77,10.64,14.38,13.74,22.84l-8.67,1.9c-2.26-6.06-5.36-11.63-9.3-16.7-4.65-5.92-10.15-10.85-16.49-14.8l-2.33-1.48-12.9,20.51c-5.36-2.54-10.93-3.81-16.7-3.81-4.79,0-9.48.85-14.06,2.54-4.58,1.69-8.71,4.23-12.37,7.61-3.67,3.38-6.63,7.33-8.88,11.84-4.65,9.73-5.22,19.67-1.69,29.82,2.68,7.61,7.19,13.82,13.53,18.61l-9.51,15.22c-4.65-3.24-8.81-7.19-12.48-11.84-4.09-5.22-7.19-11.07-9.3-17.55Zm123.06-36.37c4.79,17.34,3.31,34.04-4.44,50.11-4.23,8.6-9.83,16-16.81,22.2-6.98,6.2-14.91,10.86-23.79,13.95-7.61,2.54-15.44,3.81-23.47,3.81-10.71,0-21.01-2.33-30.87-6.98-8.46-4.23-15.79-9.83-21.99-16.81-6.2-6.98-10.86-14.91-13.96-23.79l7.61-1.9c2.25,6.2,5.42,11.84,9.51,16.92,4.51,5.92,9.94,10.86,16.28,14.8l2.54,1.48,12.48-20.3c.14.14.35.28.63.42.42.14.7.28.85.42,9.73,4.65,19.7,5.22,29.92,1.69,10.22-3.52,17.69-10.15,22.41-19.88,4.72-9.73,5.25-19.66,1.59-29.81-2.82-8.17-7.82-14.66-15.01-19.45l9.52-15.44c4.79,3.24,8.95,7.12,12.48,11.63,4.09,5.36,7.19,11.28,9.3,17.76l.85,2.54,14.38-3.38Z"/>
  <path class="cls-9" d="m1129.59,1484.11c9.87,9.16,14.8,20.44,14.8,33.83,0,12.69-4.51,23.58-13.53,32.67-9.02,9.09-19.95,13.64-32.77,13.64h-10.78v-21.36h-21.36v-10.57h32.14c2.54,0,4.93-.63,7.19-1.9,2.25-1.27,4.02-3.03,5.29-5.29,1.27-2.25,1.9-4.65,1.9-7.19,0-4.09-1.41-7.54-4.23-10.36-2.82-2.82-6.2-4.23-10.15-4.23h-37.85v45.25h21.36v15.65h-53.28v-141.88h16.7v49.27h50.11c1.55,0,2.99-.39,4.33-1.16,1.34-.77,2.4-1.83,3.17-3.17.77-1.34,1.16-2.78,1.16-4.34,0-2.39-.85-4.47-2.54-6.24-1.69-1.76-3.74-2.64-6.13-2.64h-34.89v11.63h-9.51v-43.35h44.4c11.28,0,20.86,3.95,28.76,11.84,7.89,7.9,11.84,17.48,11.84,28.76,0,7.47-2.04,14.52-6.13,21.15Z"/>
  <path class="cls-9" d="m1285.84,1528.1c-4.23,8.6-9.84,16-16.81,22.2-6.98,6.21-14.9,10.85-23.79,13.95-7.61,2.53-15.43,3.81-23.46,3.81-10.72,0-21.02-2.33-30.88-6.98-8.45-4.23-15.78-9.84-21.99-16.81-6.21-6.98-10.85-14.9-13.95-23.79l7.61-1.89c2.24,6.21,5.41,11.84,9.51,16.9,4.51,5.92,9.95,10.87,16.29,14.81l2.53,1.47,12.48-20.29c.13.13.35.29.64.42.42.13.7.29.84.42,9.73,4.67,19.7,5.22,29.93,1.69,10.21-3.52,17.69-10.15,22.4-19.87,4.73-9.73,5.26-19.67,1.58-29.82-2.82-8.16-7.81-14.66-15.01-19.45l9.53-15.43c4.78,3.23,8.93,7.11,12.46,11.62,4.09,5.37,7.2,11.29,9.31,17.76l.86,2.55,14.37-3.39c4.8,17.34,3.3,34.05-4.45,50.11Z"/>
  <path class="cls-9" d="m1288.19,1466.5l-8.71,1.6c-2.04-6.15-4.94-11.83-8.69-17.03-4.45-6.09-9.74-11.24-15.95-15.41l-2.25-1.56-13.64,20.02c-5.27-2.73-10.79-4.21-16.55-4.42-4.79-.18-9.51.49-14.15,2.01-4.66,1.52-8.86,3.9-12.66,7.15-3.78,3.25-6.89,7.08-9.3,11.51-5,9.55-5.93,19.47-2.79,29.74,2.4,7.71,6.68,14.07,12.84,19.08l-10.06,14.87c-4.54-3.4-8.56-7.52-12.04-12.29-3.9-5.36-6.79-11.33-8.66-17.87l-.74-2.58-13.22,2.69c-3.76-17.05-1.53-33.27,6.65-48.62,4.41-8.45,10.33-15.68,17.82-21.68,7.49-6,15.51-10.29,24.08-12.86,8.55-2.57,17.57-3.5,27.08-2.71,9.49.77,18.46,3.41,26.88,7.97,8.32,4.4,15.35,10.08,21.18,17.07,5.8,6.97,10.1,14.75,12.89,23.31Z"/>
  <path class="cls-9" d="m1419.78,1433.4l-22.62,22.62c-7.61-7.75-16.81-11.62-27.6-11.62s-20.03,3.85-27.71,11.53c-7.68,7.68-11.53,16.88-11.53,27.58,0,11.71,4.38,21.43,13.12,29.18l-13.95,11.42c-11.14-11.27-16.7-24.8-16.7-40.6v-2.73h-14.17c.7-19.04,7.92-35.15,21.68-48.33,13.75-13.18,30.13-19.76,49.16-19.76,9.44,0,18.53,1.78,27.27,5.39,8.74,3.59,16.42,8.69,23.06,15.32Z"/>
  <path class="cls-9" d="m1422.55,1561.39c-6.62,6.62-14.37,11.82-23.26,15.54-8.89,3.74-18.05,5.61-27.49,5.61-19.04,0-35.41-6.62-49.16-19.87s-20.97-29.34-21.68-48.22h8.45c.15,5.5,1.08,10.85,2.75,16.07,1.69,5.22,4.03,10.15,6.98,14.81,2.97,4.64,6.49,8.87,10.59,12.68l1.89,1.69,19.04-15.43c6.49,4.23,13.53,6.34,21.15,6.34,11,0,20.29-3.87,27.91-11.62l22.84,22.4Z"/>
  <path class="cls-9" d="m1473.19,1477.14v15.01h41.23v16.92h-51.81v54.98h-31.93v-141.88h31.93v54.98h10.57Zm46.94-54.98h31.93v141.67l-31.93-13.96v-63.65h-41.23v-9.09h41.23v-54.98Z"/>
  <path class="cls-9" d="m1571.3,1422.37h31.93v63.65h-8.67v-43.35h-23.26v-20.3Zm17.34,26.01v43.56h14.59v72.1l-31.93-13.74v-101.92h17.34Z"/>
  <path class="cls-9" d="m1629.44,1485.91v-2.75h-14.17c.7-19.03,7.93-35.13,21.67-48.32,13.74-13.18,30.13-19.77,49.16-19.77,9.44,0,18.53,1.8,27.28,5.39,8.74,3.59,16.42,8.7,23.05,15.33l-22.63,22.63c-7.61-7.75-16.81-11.63-27.59-11.63s-20.02,3.84-27.7,11.52c-7.69,7.69-11.52,16.88-11.52,27.59,0,11.7,4.37,21.43,13.11,29.18l-13.96,11.42c-11.14-11.28-16.7-24.81-16.7-40.6Zm84.58,27.49l22.84,22.41c-6.63,6.63-14.38,11.81-23.26,15.54-8.88,3.74-18.05,5.6-27.49,5.6-19.03,0-35.42-6.62-49.16-19.88-13.74-13.25-20.97-29.32-21.67-48.21h8.46c.14,5.5,1.06,10.86,2.75,16.07,1.69,5.22,4.02,10.15,6.98,14.8,2.96,4.65,6.48,8.88,10.57,12.69l1.9,1.69,19.03-15.44c6.48,4.23,13.53,6.34,21.15,6.34,11,0,20.3-3.87,27.91-11.63Z"/>
  <path class="cls-9" d="m1857.8,1535.28l7.4,16.28-29.18,12.48-4.65-9.94h-57.3l-4.65,9.94h-35.1l23.89-51.8h35.1l-10.57,23.05h75.06Zm-55.19-43.56l-6.77,14.8h-35.1l41.87-91.13,52.44,114.18h-63.22l3.17-7.4h21.78l-14.17-30.45Z"/>
  <path class="cls-9" d="m2030.85,1460.74c22.67,0,42,7.83,58,23.5,16,15.67,24,34.67,24,57h24c0,29-10.42,53.67-31.25,74-20.84,20.34-45.75,30.5-74.75,30.5h-164.51v-74h164.51c8.33,0,15.5-3,21.5-9,6-6,9-13.16,9-21.5s-3-15.41-9-21.25c-6-5.83-13.17-8.75-21.5-8.75h-81.5c-29,0-53.92-10.25-74.75-30.75-20.84-20.5-31.25-45.08-31.25-73.75h49.5c.66,14.34,8.41,26.92,23.25,37.75,14.83,10.84,29.75,16.25,44.75,16.25h70Zm-65-16.5c-9.67,0-18.75-2.41-27.25-7.25-8.5-4.83-15.17-11.33-20-19.5-4.84-8.17-7.25-17.25-7.25-27.25h-51.5c0-28.66,10.42-53.17,31.25-73.5,20.83-20.33,45.75-30.5,74.75-30.5h178.52l23.62,10.04-18.15,63.96h-183.99c-8.34,0-15.5,2.92-21.5,8.75-6,5.84-9,12.92-9,21.25,0,5.67,1.33,10.84,4,15.5,2.67,4.67,6.41,8.33,11.25,11,4.83,2.67,9.91,4,15.25,4h81.5c11.33,0,23.25,2.75,35.75,8.25s24.08,12.92,34.75,22.25c23.66,21.67,35.5,46.34,35.5,74h-22.5c-1-21-10.42-39.75-28.25-56.25-17.84-16.5-36.25-24.75-55.25-24.75h-81.5Z"/>
  <path class="cls-9" d="m804.69,1452.08l133.92,183.4-103.57,2.18-90.43-137.72h-69.13v137.72l-80.29-17.86-41.98-352.76h84.52v134.53h37.75v50.51h129.21Zm-30.84-105.28h-98.37v40.41h-23.4v-120.17h121.77c20.91,0,40.32,5.14,58.23,15.42,17.89,10.28,32.08,24.38,42.54,42.27,10.45,17.9,15.69,37.49,15.69,58.76,0,12.76-2.04,25.17-6.12,37.22-4.08,12.06-9.84,22.96-17.28,32.7-7.44,9.75-16.13,18.17-26.05,25.26l-28.71-41.48h-122.3v-17.55h84.01c9.92,0,18.43-3.54,25.52-10.64,7.09-7.09,10.64-15.59,10.64-25.52,0-6.73-1.6-12.84-4.79-18.34-3.19-5.49-7.63-9.92-13.29-13.29-5.67-3.37-11.7-5.05-18.08-5.05Z"/>
  <path class="cls-2" d="m1179,1398.12s12.74-12.04,44.79-12.04,44.79,12.04,44.79,12.04"/>
  <polygon class="cls-8" points="228.83 1330.55 244.24 1409.78 310.26 1395.47 380.68 1479.1 338.87 1340.76 228.83 1330.55"/>
  <polygon class="cls-8" points="277.81 1444.57 397.75 1571.25 427.46 1572.49 318.52 1434.67 277.81 1444.57"/>
  <path class="cls-8" d="m2384.32,1366.01l112.03-11.78v60.85l-56.58,52.12s-41.56-10.2-43.41-9.06c-1.85,1.14-48.14,35.76-48.14,35.76l36.11-127.88Z"/>
  <polygon class="cls-8" points="2388.13 1497.19 2337.21 1532.84 2313.14 1601 2331.19 1602.74 2415.44 1505.53 2388.13 1497.19"/>
  <path class="cls-8" d="m1010.53,1477.24l-8.65,1.91c-2.27-6.07-5.37-11.64-9.31-16.73-4.67-5.92-10.15-10.85-16.51-14.79l-2.31-1.47-12.9,20.51c-5.37-2.55-10.94-3.81-16.7-3.81-4.8,0-9.49.84-14.06,2.53-4.6,1.69-8.71,4.23-12.39,7.61-3.65,3.39-6.62,7.33-8.87,11.84-4.64,9.73-5.22,19.67-1.69,29.82,2.68,7.61,7.2,13.82,13.53,18.6l-9.51,15.23c-4.67-3.23-8.82-7.2-12.48-11.84-4.09-5.22-7.2-11.07-9.31-17.56l-.84-2.53-13.12,3.17c-4.38-16.9-2.75-33.19,4.86-48.83,4.09-8.6,9.75-16.04,17.01-22.32,7.26-6.27,15.12-10.85,23.59-13.73,8.45-2.9,17.43-4.14,26.96-3.7,9.51.42,18.57,2.73,27.16,6.98,8.47,4.07,15.71,9.51,21.79,16.26,6.05,6.78,10.63,14.39,13.73,22.84Z"/>
  <path class="cls-8" d="m1010.23,1540.58c-4.23,8.61-9.84,16-16.81,22.21-6.98,6.21-14.9,10.85-23.79,13.95-7.61,2.53-15.43,3.81-23.46,3.81-10.72,0-21.02-2.33-30.88-6.98-8.45-4.23-15.78-9.84-21.99-16.81-6.21-6.98-10.85-14.9-13.95-23.79l7.61-1.89c2.24,6.21,5.41,11.84,9.51,16.9,4.51,5.92,9.95,10.87,16.29,14.81l2.53,1.47,12.48-20.29c.13.13.35.29.64.42.42.13.7.29.84.42,9.73,4.67,19.7,5.22,29.93,1.69,10.21-3.52,17.69-10.15,22.4-19.87,4.73-9.73,5.26-19.67,1.58-29.82-2.82-8.16-7.81-14.66-15.01-19.45l9.53-15.43c4.78,3.24,8.93,7.11,12.46,11.62,4.09,5.37,7.2,11.29,9.31,17.76l.86,2.55,14.37-3.39c4.8,17.34,3.3,34.04-4.45,50.11Z"/>
  <path class="cls-8" d="m1144.18,1526.93c0,12.68-4.51,23.57-13.53,32.66-9.02,9.11-19.96,13.64-32.77,13.64h-10.78v-21.35h-21.37v-10.59h32.15c2.53,0,4.93-.64,7.17-1.89,2.27-1.28,4.03-3.04,5.28-5.28,1.28-2.27,1.91-4.67,1.91-7.2,0-4.09-1.41-7.55-4.23-10.37-2.82-2.82-6.21-4.23-10.15-4.23h-37.85v45.25h21.35v15.65h-53.28v-141.88h16.7v49.27h50.11c1.54,0,2.99-.4,4.34-1.17,1.34-.77,2.4-1.83,3.17-3.17.77-1.34,1.17-2.79,1.17-4.34,0-2.4-.84-4.47-2.53-6.25-1.69-1.76-3.74-2.64-6.14-2.64h-34.88v11.64h-9.53v-43.35h44.41c11.27,0,20.86,3.94,28.76,11.84,7.88,7.9,11.84,17.47,11.84,28.76,0,7.46-2.05,14.52-6.14,21.15,9.86,9.15,14.81,20.42,14.81,33.82Z"/>
  <path class="cls-8" d="m1288.18,1468.92l-8.67,1.91c-2.27-6.07-5.37-11.64-9.31-16.73-4.64-5.92-10.15-10.85-16.48-14.79l-2.33-1.47-12.9,20.51c-5.37-2.55-10.94-3.81-16.7-3.81-4.8,0-9.49.84-14.06,2.53-4.58,1.69-8.71,4.23-12.37,7.61-3.68,3.39-6.62,7.33-8.89,11.84-4.64,9.73-5.22,19.67-1.69,29.82,2.68,7.61,7.2,13.82,13.53,18.6l-9.51,15.23c-4.64-3.23-8.8-7.2-12.48-11.84-4.09-5.22-7.2-11.07-9.31-17.56l-.84-2.53-13.12,3.17c-4.36-16.9-2.75-33.19,4.86-48.83,4.09-8.6,9.77-16.04,17.03-22.32,7.24-6.27,15.12-10.85,23.57-13.73,8.45-2.9,17.45-4.14,26.96-3.7,9.51.42,18.57,2.73,27.18,6.98,8.45,4.07,15.71,9.51,21.76,16.26,6.07,6.78,10.65,14.39,13.75,22.84Z"/>
  <path class="cls-8" d="m1285.84,1537.53c-4.23,8.61-9.82,16-16.79,22.21-6.98,6.21-14.92,10.85-23.79,13.95-7.61,2.53-15.45,3.81-23.48,3.81-10.72,0-20.99-2.33-30.88-6.98-8.45-4.23-15.78-9.84-21.99-16.81-6.21-6.98-10.85-14.9-13.95-23.79l7.61-1.89c2.24,6.21,5.41,11.84,9.51,16.9,4.51,5.92,9.95,10.87,16.29,14.81l2.53,1.47,12.48-20.29c.15.13.35.29.64.42.42.13.7.29.86.42,9.73,4.67,19.7,5.22,29.91,1.69,10.21-3.52,17.69-10.15,22.43-19.87,4.71-9.73,5.24-19.67,1.58-29.82-2.84-8.16-7.83-14.66-15.03-19.45l9.53-15.43c4.8,3.24,8.96,7.11,12.48,11.62,4.07,5.37,7.17,11.29,9.31,17.76l.84,2.55,14.37-3.39c4.8,17.34,3.32,34.04-4.45,50.11Z"/>
  <path class="cls-8" d="m1419.77,1440.98l-22.62,22.62c-7.61-7.75-16.81-11.64-27.6-11.64s-20.03,3.85-27.71,11.53c-7.68,7.68-11.51,16.88-11.51,27.6,0,11.71,4.36,21.44,13.09,29.18l-13.95,11.42c-11.14-11.29-16.7-24.82-16.7-40.6v-2.75h-14.15c.7-19.04,7.92-35.12,21.66-48.33,13.75-13.16,30.15-19.76,49.16-19.76,9.44,0,18.53,1.8,27.29,5.39,8.74,3.59,16.42,8.71,23.04,15.34Z"/>
  <path class="cls-8" d="m1419.9,1555.69c-6.62,6.62-14.37,11.82-23.26,15.56-8.87,3.72-18.05,5.59-27.49,5.59-19.01,0-35.41-6.62-49.16-19.87-13.73-13.25-20.95-29.31-21.66-48.22h8.45c.13,5.5,1.06,10.87,2.75,16.09,1.69,5.22,4.01,10.15,6.98,14.79,2.95,4.64,6.47,8.89,10.56,12.7l1.91,1.67,19.01-15.43c6.49,4.23,13.53,6.34,21.15,6.34,11,0,20.31-3.87,27.93-11.62l22.82,22.4Z"/>
  <polygon class="cls-8" points="1514.21 1504.19 1514.21 1521.09 1462.41 1521.09 1462.41 1576.08 1430.47 1576.08 1430.47 1434.2 1462.41 1434.2 1462.41 1489.18 1472.97 1489.18 1472.97 1504.19 1514.21 1504.19"/>
  <polygon class="cls-8" points="1552.05 1422.16 1552.05 1563.82 1520.12 1549.87 1520.12 1486.23 1478.9 1486.23 1478.9 1477.14 1520.12 1477.14 1520.12 1422.16 1552.05 1422.16"/>
  <polygon class="cls-8" points="1603.23 1422.37 1603.23 1486.02 1594.56 1486.02 1594.56 1442.67 1571.3 1442.67 1571.3 1422.37 1603.23 1422.37"/>
  <polygon class="cls-8" points="1603.23 1511.96 1603.23 1584.08 1571.3 1570.32 1571.3 1468.41 1588.64 1468.41 1588.64 1511.96 1603.23 1511.96"/>
  <path class="cls-8" d="m1737.08,1543.1c-6.65,6.62-14.39,11.82-23.26,15.56-8.89,3.72-18.05,5.59-27.49,5.59-19.04,0-35.43-6.62-49.16-19.87-13.75-13.25-20.97-29.31-21.68-48.22h8.45c.15,5.5,1.06,10.87,2.75,16.09,1.69,5.22,4.03,10.15,6.98,14.79,2.97,4.64,6.49,8.89,10.59,12.7l1.89,1.67,19.04-15.43c6.47,4.23,13.53,6.34,21.15,6.34,10.98,0,20.29-3.87,27.91-11.62l22.84,22.4Z"/>
  <path class="cls-8" d="m1736.64,1426.93l-22.62,22.62c-7.61-7.75-16.81-11.64-27.6-11.64s-20,3.85-27.68,11.53c-7.68,7.68-11.53,16.88-11.53,27.6,0,11.71,4.38,21.44,13.12,29.18l-13.95,11.42c-11.14-11.29-16.7-24.82-16.7-40.6v-2.75h-14.17c.7-19.04,7.92-35.12,21.68-48.33,13.73-13.16,30.13-19.76,49.16-19.76,9.44,0,18.53,1.8,27.27,5.39,8.74,3.59,16.42,8.71,23.04,15.34Z"/>
  <polygon class="cls-8" points="1794.8 1522.18 1816.57 1522.18 1802.4 1491.74 1795.64 1506.53 1760.54 1506.53 1802.4 1415.4 1854.84 1529.57 1791.61 1529.57 1794.8 1522.18"/>
  <polygon class="cls-8" points="1859.84 1561.92 1830.66 1574.4 1826.01 1564.45 1768.71 1564.45 1764.06 1574.4 1728.96 1574.4 1752.86 1522.6 1787.96 1522.6 1777.38 1545.64 1852.44 1545.64 1859.84 1561.92"/>
  <path class="cls-8" d="m2030.64,1469.72c22.67,0,42,7.83,58,23.5,16,15.67,24,34.67,24,57h24c0,29-10.42,53.67-31.25,74-20.84,20.34-45.75,30.5-74.75,30.5h-164.51v-74h164.51c8.33,0,15.5-3,21.5-9,6-6,9-13.16,9-21.5s-3-15.41-9-21.25c-6-5.83-13.17-8.75-21.5-8.75h-81.5c-29,0-53.92-10.25-74.75-30.75-20.84-20.5-31.25-45.08-31.25-73.75h49.5c.66,14.34,8.41,26.92,23.25,37.75,14.83,10.84,29.75,16.25,44.75,16.25h70Zm-65-16.5c-9.67,0-18.75-2.41-27.25-7.25-8.5-4.83-15.17-11.33-20-19.5-4.84-8.17-7.25-17.25-7.25-27.25h-51.5c0-28.66,10.42-53.17,31.25-73.5,20.83-20.33,45.75-30.5,74.75-30.5h178.52l23.62,10.04-18.15,63.96h-183.99c-8.34,0-15.5,2.92-21.5,8.75-6,5.84-9,12.92-9,21.25,0,5.67,1.33,10.84,4,15.5,2.67,4.67,6.41,8.33,11.25,11,4.83,2.67,9.91,4,15.25,4h81.5c11.33,0,23.25,2.75,35.75,8.25,12.5,5.5,24.08,12.92,34.75,22.25,23.66,21.67,35.5,46.34,35.5,74h-22.5c-1-21-10.42-39.75-28.25-56.25-17.84-16.5-36.25-24.75-55.25-24.75h-81.5Z"/>
  <path class="cls-8" d="m804.48,1461.06h-129.2v-50.51h-37.76v-134.53h-84.53l41.99,352.75,80.3,17.87v-137.72h69.12l90.43,137.72,103.57-2.18-133.91-183.41Z"/>
  <path class="cls-8" d="m900.62,1377.3c0,12.76-2.05,25.18-6.12,37.21-4.07,12.06-9.84,22.98-17.28,32.7-7.44,9.77-16.13,18.18-26.06,25.26l-28.72-41.48h-122.29v-17.54h84c9.93,0,18.44-3.54,25.53-10.63s10.65-15.6,10.65-25.53c0-6.73-1.61-12.83-4.8-18.33-3.19-5.5-7.64-9.93-13.29-13.29-5.68-3.37-11.71-5.06-18.09-5.06h-98.35v40.41h-23.42v-120.16h121.77c20.93,0,40.34,5.13,58.23,15.41,17.89,10.3,32.09,24.38,42.54,42.28,10.45,17.91,15.69,37.5,15.69,58.76Z"/>
  <path class="cls-3" d="m1179,1404.72s12.74-12.04,44.79-12.04,44.79,12.04,44.79,12.04"/>
  <g>
    <polygon class="cls-8" points="1554.9 1984.7 1499.11 2016.9 1445.75 2047.71 1339.01 2047.71 1265.29 2010.3 1272.42 1991.2 1275.96 1981.69 1175.94 1931.01 1087.03 1885.96 1067.22 1905.76 956.13 1858.45 948.38 1817.73 1260.2 1819.89 1291.87 1837.61 1384.63 1889.48 1470.11 1937.3 1470.13 1937.3 1535.43 1973.81 1554.9 1984.7"/>
    <polygon class="cls-8" points="1747.24 1849.64 1642.38 1871.65 1687.83 1907.96 1611.35 1952.11 1567.09 1936.24 1495.44 1910.58 1466.65 1900.26 1482.15 1867.25 1429.97 1848.39 1352.94 1820.53 1459.9 1821.26 1579.37 1822.09 1662.83 1822.66 1747.24 1823.24 1747.24 1849.64"/>
    <polygon class="cls-6" points="1291.87 1837.61 1384.63 1889.48 1272.42 1991.2 1275.96 1981.69 1175.94 1931.01 1291.87 1837.61"/>
    <polygon class="cls-6" points="1459.9 1821.26 1429.97 1848.39 1352.94 1820.53 1459.9 1821.26"/>
    <polygon class="cls-6" points="1470.13 1937.3 1535.43 1973.81 1499.11 2016.9 1445.75 2047.71 1365.4 2047.71 1470.11 1937.3 1470.13 1937.3"/>
    <polygon class="cls-6" points="1662.83 1822.66 1567.09 1936.24 1495.44 1910.58 1579.37 1822.09 1662.83 1822.66"/>
  </g>
</svg>